<svg viewBox="0 0 1280 640" xmlns="http://www.w3.org/2000/svg" fill-rule="evenodd" clip-rule="evenodd" stroke-linejoin="round" stroke-miterlimit="2"><g fill-rule="nonzero"><path d="M879 194L756 82l-17 19 102 93H439l102-93-17-19-123 112v74c0 34 32 61 72 61h76c39 0 71-27 71-61v-48h40v48c0 34 32 61 71 61h76c40 0 72-27 72-61v-74z" fill="#f7931a"/><path d="M543 252c2-10-5-14-15-18l4-12-8-2-3 12-6-1 3-12-7-2-3 12-5-1-10-3-2 8 5 2c3 1 4 3 3 4l-3 14h0l-5 20c0 1-1 2-3 1l-6-1-3 9 9 2 6 1-3 13 7 2 3-13 6 2-3 12 7 2 3-12c13 2 23 1 27-10 3-10 0-15-7-19 5-1 8-4 9-10zm-17 23c-2 10-18 5-23 3l5-16c5 1 21 4 18 13zm3-24c-2 9-15 5-20 3l4-14c4 1 18 3 16 11zM801 252c2-10-5-14-15-18l4-12-8-2-3 12-6-1 3-12-7-2-3 12-5-1-10-3-2 8 5 2c3 1 4 3 4 4l-4 14h0l-5 20c0 1-1 2-3 1l-6-1-3 9 9 2 6 1-3 13 7 2 3-13 6 2-3 12 7 2 3-12c13 2 23 1 27-10 3-10 0-15-7-19 5-1 8-4 9-10zm-17 23c-2 10-17 5-23 3l5-16c5 1 21 4 18 13zm3-24c-2 9-15 5-20 3l4-14c4 1 18 3 16 11z" fill="#fff"/></g><g fill="#494368" fill-rule="nonzero"><path d="M238 436c-3 0-6-1-8-3-3-3-4-5-4-9v-19h44v-8l-1-3h-43v-10h42c3 0 6 1 8 3 2 3 3 5 3 9v40h-41zm1-10h31v-12h-34v9l1 3h2zM304 436l-20-52h10l14 34 15-34h11l16 35 14-35h10l-20 52h-8l-17-39-17 39h-8zM390 436c-3 0-6-1-8-3-3-3-4-5-4-9v-28c0-4 1-6 4-9 2-2 5-3 8-3h29c4 0 6 1 9 3 2 3 3 5 3 9v19h-43v11h43v10h-41zm-2-30h33v-9-3h-33v12zM451 436c-3 0-6-1-8-3-2-3-3-5-3-9v-1h9v1l1 2h32l1-2v-6l-1-2-2-1h-29c-3 0-6-1-8-4-2-2-3-5-3-8v-7c0-4 1-6 3-9 2-2 5-3 8-3h30c3 0 6 1 8 3 2 3 4 5 4 9v1h-10v-1l-1-2h-32l-1 2v6l1 2 2 1h29c3 0 6 1 8 4 2 2 4 5 4 8v7c0 4-2 6-4 9-2 2-5 3-8 3h-30zM513 436c-4 0-6-1-9-3-2-3-3-5-3-9v-28c0-4 1-6 3-9 3-2 5-3 9-3h29c3 0 6 1 8 3 3 3 4 5 4 9v28c0 4-1 6-4 9-2 2-5 3-8 3h-29zm1-10h29l1-3v-26l-1-3h-32v32h3zM563 436v-52h67c3 0 6 1 8 3 2 3 4 5 4 9v40h-10v-39l-1-3h-23l-1 3v39h-9v-39l-1-3h-23l-1 3v39h-10zM661 436c-3 0-6-1-8-3-2-3-3-5-3-9v-28c0-4 1-6 3-9 2-2 5-3 8-3h30c3 0 6 1 8 3 2 3 4 5 4 9v19h-44v8l1 3h43v10h-42zm-2-30h34v-9l-1-3h-32l-1 3v9zM738 436v-69h10v17h31c4 0 6 1 9 3 2 3 3 5 3 9v28c0 4-1 6-3 9-3 2-5 3-9 3h-41zm13-10h30v-29-3h-33v32h3zM798 436v-52h9v52h-9zm0-59v-10h9v10h-9zM830 436c-4 0-6-1-9-3-2-3-3-5-3-9v-56h10v16h21v10h-21v32h21v10h-19zM868 436c-4 0-6-1-9-3-2-3-3-5-3-9v-28c0-4 1-6 3-9 3-2 5-3 9-3h41v10h-43v32h43v10h-41zM930 436c-4 0-6-1-9-3-2-3-3-5-3-9v-28c0-4 1-6 3-9 3-2 5-3 9-3h29c4 0 6 1 9 3 2 3 3 5 3 9v28c0 4-1 6-3 9-3 2-5 3-9 3h-29zm1-10h30v-29-3h-33v32h3zM980 436v-52h10v52h-10zm0-59v-10h10v10h-10zM1000 436v-52h42c3 0 6 1 8 3 2 3 3 5 3 9v40h-9v-39l-1-3h-32l-1 3v39h-10zM124 547v-73h41c4 0 6 1 9 3 2 2 3 5 3 8v29c0 3-1 6-3 8-3 3-5 4-9 4h-31v21h-10zm13-31h27l3-1v-28-3l-3-1h-27l-3 1v31l3 1zM195 526c-3 0-6-1-8-4-2-2-3-5-3-8v-19h43v-8l-1-3-2-1h-40v-9h41c3 0 6 1 8 3s4 5 4 8v41h-42zm2-10h30v-12h-34v9l1 2 3 1zM254 546v-10h31l3-1v-9h-31c-4 0-6-1-9-4-2-2-3-5-3-8v-40h10v41l3 1h27l3-1v-41h10v60c0 3-1 6-3 8-3 3-5 4-9 4h-32zM308 526v-52h66c3 0 6 1 8 3 3 2 4 5 4 8v41h-10v-39-3l-3-1h-18l-3 1v42h-10v-39l-1-3-2-1h-18l-3 1-1 3v39h-9zM406 526c-4 0-6-1-9-4-2-2-3-5-3-8v-29c0-3 1-6 3-8 3-2 5-3 9-3h29c3 0 6 1 8 3 3 2 4 5 4 8v20h-43v10l3 1h40v10h-41zm-2-30h33v-9l-1-3-2-1h-27l-3 1v12zM456 526v-52h42c3 0 6 1 8 3s3 5 3 8v41h-9v-39l-1-3-3-1h-27l-2 1-1 3v39h-10zM530 526c-3 0-6-1-8-4-2-2-3-5-3-8v-57h9v17h22v9h-22v30l1 2 3 1h18v10h-20zM583 547v-73h41c4 0 6 1 9 3 2 2 3 5 3 8v29c0 3-1 6-3 8-3 3-5 4-9 4h-31v21h-10zm13-31h27l3-1v-28-3l-3-1h-27l-3 1v31l3 1zM642 526v-41c0-3 2-6 4-8s5-3 8-3h29v9h-28l-2 1-1 3v39h-10zM700 526c-3 0-6-1-8-4-2-2-3-5-3-8v-29c0-3 1-6 3-8s5-3 8-3h30c3 0 6 1 8 3 3 2 4 5 4 8v29c0 3-1 6-4 8-2 3-5 4-8 4h-30zm2-10h27l2-1 1-2v-26l-1-3-2-1h-27l-3 1-1 3v26l1 2 3 1zM763 526c-4 0-6-1-9-4-2-2-3-5-3-8v-29c0-3 1-6 3-8 3-2 5-3 9-3h41v9h-40l-3 1v31l3 1h40v10h-41zM823 526c-3 0-6-1-9-4-2-2-3-5-3-8v-29c0-3 1-6 3-8l9-3h29c4 0 6 1 9 3 2 2 3 5 3 8v20h-43v10l3 1h40v10h-41zm-2-30h33v-9-3l-3-1h-27l-3 1v12zM884 526c-3 0-6-1-8-4-2-2-3-5-3-8v-1h9l1 2 2 1h28l2-1 1-2v-6l-1-2h-31c-3 0-6-1-8-4-2-2-3-5-3-8v-8c0-3 1-6 3-8s5-3 8-3h30c3 0 6 1 8 3s4 5 4 8v2h-10v-1l-1-2-2-1h-28l-2 1-1 2v6l1 2 2 1h29c3 0 6 1 8 3 2 3 4 5 4 9v7c0 3-2 6-4 8-2 3-5 4-8 4h-30zM946 526c-3 0-6-1-8-4-3-2-4-5-4-8v-1h10l1 2 2 1h28l2-1v-8-2h-31c-3 0-6-1-8-4-3-2-4-5-4-8v-8c0-3 1-6 4-8 2-2 5-3 8-3h30c3 0 6 1 8 3s3 5 3 8v2h-10v-1-2l-2-1h-28l-2 1-1 2v6l1 2 2 1h29c3 0 6 1 8 3 2 3 3 5 3 9v7c0 3-1 6-3 8-2 3-5 4-8 4h-30zM1007 526c-3 0-6-1-8-4-2-2-4-5-4-8v-29c0-3 2-6 4-8s5-3 8-3h30c3 0 6 1 8 3s3 5 3 8v29c0 3-1 6-3 8-2 3-5 4-8 4h-30zm2-10h26l3-1 1-2v-26l-1-3-3-1h-26l-3 1-1 3v26l1 2 3 1zM1056 526v-41c0-3 1-6 4-8 2-2 5-3 8-3h29v9h-28l-2 1-1 3v39h-10zM1115 526c-4 0-6-1-9-4-2-2-3-5-3-8v-1h10v2l2 1h29l2-1v-8-2h-31c-4 0-6-1-9-4-2-2-3-5-3-8v-8c0-3 1-6 3-8 3-2 5-3 9-3h29c4 0 6 1 9 3 2 2 3 5 3 8v2h-10v-1-2l-2-1h-29l-2 1v10l2 1h29c4 0 6 1 9 3 2 3 3 5 3 9v7c0 3-1 6-3 8-3 3-5 4-9 4h-29z"/></g></svg>